<svg xmlns="http://www.w3.org/2000/svg" xmlns:xlink="http://www.w3.org/1999/xlink" width="500" zoomAndPan="magnify" viewBox="0 0 375 374.999991" height="500" preserveAspectRatio="xMidYMid meet" version="1.2"><defs><clipPath id="81a62bc27b"><path d="M 148.824219 150.175781 L 226.074219 150.175781 L 226.074219 225 L 148.824219 225 Z M 148.824219 150.175781 "/></clipPath></defs><g id="2fe916c280"><g clip-rule="nonzero" clip-path="url(#81a62bc27b)"><path style=" stroke:none;fill-rule:nonzero;fill:#ffffff;fill-opacity:1;" d="M 148.828125 150.195312 L 176.785156 224.714844 L 197.410156 224.714844 L 169.453125 150.195312 Z M 205.457031 150.195312 L 188.742188 190.074219 L 209.363281 190.074219 L 226.078125 150.195312 Z M 205.457031 150.195312 "/></g><g style="fill:#ffffff;fill-opacity:1;"><g transform="translate(128.020924, 253.047478)"><path style="stroke:none" d="M 9.203125 -12 L 11.515625 -12 C 11.628906 -12 11.710938 -11.960938 11.765625 -11.890625 C 11.816406 -11.828125 11.8125 -11.738281 11.75 -11.625 L 6.40625 0 C 6.300781 0.226562 6.171875 0.34375 6.015625 0.34375 C 5.859375 0.34375 5.722656 0.226562 5.609375 0 L 0.265625 -11.625 C 0.210938 -11.738281 0.207031 -11.828125 0.25 -11.890625 C 0.300781 -11.960938 0.382812 -12 0.5 -12 L 2.8125 -12 C 2.988281 -12 3.109375 -11.914062 3.171875 -11.75 L 6.015625 -4.625 L 8.84375 -11.75 C 8.914062 -11.914062 9.035156 -12 9.203125 -12 Z M 9.203125 -12 "/></g></g><g style="fill:#ffffff;fill-opacity:1;"><g transform="translate(152.841406, 253.047478)"><path style="stroke:none" d="M 3.59375 0 L 1.515625 0 C 1.296875 0 1.1875 -0.109375 1.1875 -0.328125 L 1.1875 -11.6875 C 1.1875 -11.894531 1.296875 -12 1.515625 -12 L 3.59375 -12 C 3.8125 -12 3.921875 -11.894531 3.921875 -11.6875 L 3.921875 -0.328125 C 3.921875 -0.109375 3.8125 0 3.59375 0 Z M 3.59375 0 "/></g></g><g style="fill:#ffffff;fill-opacity:1;"><g transform="translate(170.741704, 253.047478)"><path style="stroke:none" d="M 8.484375 -4.421875 L 10.640625 -0.390625 C 10.703125 -0.273438 10.707031 -0.179688 10.65625 -0.109375 C 10.613281 -0.0351562 10.535156 0 10.421875 0 L 8.03125 0 C 7.863281 0 7.738281 -0.0820312 7.65625 -0.25 L 5.765625 -4 L 3.9375 -4 L 3.9375 -0.328125 C 3.9375 -0.109375 3.828125 0 3.609375 0 L 1.515625 0 C 1.296875 0 1.1875 -0.109375 1.1875 -0.328125 L 1.1875 -11.6875 C 1.1875 -11.894531 1.296875 -12 1.515625 -12 L 5.984375 -12 C 6.828125 -12 7.53125 -11.898438 8.09375 -11.703125 C 8.65625 -11.503906 9.101562 -11.226562 9.4375 -10.875 C 9.78125 -10.519531 10.023438 -10.101562 10.171875 -9.625 C 10.328125 -9.144531 10.40625 -8.628906 10.40625 -8.078125 C 10.40625 -7.191406 10.238281 -6.4375 9.90625 -5.8125 C 9.570312 -5.195312 9.097656 -4.734375 8.484375 -4.421875 Z M 5.5625 -9.640625 L 3.9375 -9.640625 L 3.9375 -6.359375 L 5.5625 -6.359375 C 5.675781 -6.359375 5.820312 -6.363281 6 -6.375 C 6.175781 -6.382812 6.363281 -6.414062 6.5625 -6.46875 C 6.757812 -6.519531 6.941406 -6.601562 7.109375 -6.71875 C 7.273438 -6.84375 7.410156 -7.007812 7.515625 -7.21875 C 7.628906 -7.4375 7.6875 -7.710938 7.6875 -8.046875 C 7.6875 -8.367188 7.632812 -8.628906 7.53125 -8.828125 C 7.4375 -9.023438 7.304688 -9.179688 7.140625 -9.296875 C 6.984375 -9.410156 6.8125 -9.488281 6.625 -9.53125 C 6.4375 -9.582031 6.25 -9.613281 6.0625 -9.625 C 5.875 -9.632812 5.707031 -9.640625 5.5625 -9.640625 Z M 5.5625 -9.640625 "/></g></g><g style="fill:#ffffff;fill-opacity:1;"><g transform="translate(194.937339, 253.047478)"><path style="stroke:none" d="M 7.125 0.3125 C 6.175781 0.3125 5.304688 0.160156 4.515625 -0.140625 C 3.734375 -0.441406 3.054688 -0.867188 2.484375 -1.421875 C 1.921875 -1.972656 1.484375 -2.632812 1.171875 -3.40625 C 0.859375 -4.1875 0.703125 -5.050781 0.703125 -6 C 0.703125 -6.957031 0.859375 -7.820312 1.171875 -8.59375 C 1.484375 -9.363281 1.921875 -10.023438 2.484375 -10.578125 C 3.054688 -11.140625 3.734375 -11.566406 4.515625 -11.859375 C 5.304688 -12.160156 6.175781 -12.3125 7.125 -12.3125 C 8.1875 -12.3125 9.144531 -12.125 10 -11.75 C 10.851562 -11.375 11.5625 -10.851562 12.125 -10.1875 C 12.269531 -10.03125 12.253906 -9.882812 12.078125 -9.75 L 10.359375 -8.578125 C 10.191406 -8.460938 10.046875 -8.484375 9.921875 -8.640625 C 9.585938 -9.003906 9.179688 -9.289062 8.703125 -9.5 C 8.234375 -9.707031 7.707031 -9.8125 7.125 -9.8125 C 6.582031 -9.8125 6.085938 -9.722656 5.640625 -9.546875 C 5.191406 -9.367188 4.800781 -9.113281 4.46875 -8.78125 C 4.132812 -8.445312 3.878906 -8.046875 3.703125 -7.578125 C 3.523438 -7.109375 3.4375 -6.582031 3.4375 -6 C 3.4375 -5.40625 3.523438 -4.863281 3.703125 -4.375 C 3.890625 -3.894531 4.144531 -3.484375 4.46875 -3.140625 C 4.800781 -2.796875 5.191406 -2.53125 5.640625 -2.34375 C 6.097656 -2.15625 6.59375 -2.0625 7.125 -2.0625 C 7.6875 -2.0625 8.195312 -2.160156 8.65625 -2.359375 C 9.113281 -2.554688 9.503906 -2.828125 9.828125 -3.171875 L 9.828125 -4.046875 L 7.484375 -4.046875 C 7.265625 -4.046875 7.15625 -4.15625 7.15625 -4.375 L 7.15625 -5.96875 C 7.15625 -6.175781 7.265625 -6.28125 7.484375 -6.28125 L 12 -6.28125 C 12.21875 -6.28125 12.328125 -6.175781 12.328125 -5.96875 L 12.328125 -2.28125 C 12.328125 -2.132812 12.285156 -2.015625 12.203125 -1.921875 C 11.648438 -1.210938 10.9375 -0.660156 10.0625 -0.265625 C 9.195312 0.117188 8.21875 0.3125 7.125 0.3125 Z M 7.125 0.3125 "/></g></g><g style="fill:#ffffff;fill-opacity:1;"><g transform="translate(220.921594, 253.047478)"><path style="stroke:none" d="M 3.59375 0 L 1.515625 0 C 1.296875 0 1.1875 -0.109375 1.1875 -0.328125 L 1.1875 -11.6875 C 1.1875 -11.894531 1.296875 -12 1.515625 -12 L 3.59375 -12 C 3.8125 -12 3.921875 -11.894531 3.921875 -11.6875 L 3.921875 -0.328125 C 3.921875 -0.109375 3.8125 0 3.59375 0 Z M 3.59375 0 "/></g></g><g style="fill:#ffffff;fill-opacity:1;"><g transform="translate(238.821892, 253.047478)"><path style="stroke:none" d="M 7.515625 0 L 1.515625 0 C 1.296875 0 1.1875 -0.109375 1.1875 -0.328125 L 1.1875 -11.6875 C 1.1875 -11.894531 1.296875 -12 1.515625 -12 L 3.59375 -12 C 3.8125 -12 3.921875 -11.894531 3.921875 -11.6875 L 3.921875 -2.359375 L 7.515625 -2.359375 C 7.734375 -2.359375 7.84375 -2.253906 7.84375 -2.046875 L 7.84375 -0.328125 C 7.84375 -0.109375 7.734375 0 7.515625 0 Z M 7.515625 0 "/></g></g></g></svg>