<svg xmlns="http://www.w3.org/2000/svg" xmlns:xlink="http://www.w3.org/1999/xlink" width="500" zoomAndPan="magnify" viewBox="0 0 375 374.999991" height="500" preserveAspectRatio="xMidYMid meet" version="1.2"><defs><clipPath id="744eb39b60"><path d="M 103 149 L 183 149 L 183 236 L 103 236 Z M 103 149 "/></clipPath><clipPath id="370e3e2204"><path d="M 185.144531 44.21875 L 293.539062 147.90625 L 189.855469 256.296875 L 81.460938 152.613281 Z M 185.144531 44.21875 "/></clipPath><clipPath id="4b72481c2e"><path d="M 185.144531 44.21875 L 293.539062 147.90625 L 189.855469 256.296875 L 81.460938 152.613281 Z M 185.144531 44.21875 "/></clipPath><clipPath id="199b051ab1"><path d="M 185.144531 44.21875 L 293.539062 147.90625 L 189.855469 256.296875 L 81.460938 152.613281 Z M 185.144531 44.21875 "/></clipPath><clipPath id="f93598a197"><path d="M 192 64 L 272 64 L 272 151 L 192 151 Z M 192 64 "/></clipPath><clipPath id="1e6b2b75bf"><path d="M 185.144531 44.21875 L 293.539062 147.90625 L 189.855469 256.296875 L 81.460938 152.613281 Z M 185.144531 44.21875 "/></clipPath><clipPath id="7fa9fb7794"><path d="M 185.144531 44.21875 L 293.539062 147.90625 L 189.855469 256.296875 L 81.460938 152.613281 Z M 185.144531 44.21875 "/></clipPath><clipPath id="5cb0671856"><path d="M 185.144531 44.21875 L 293.539062 147.90625 L 189.855469 256.296875 L 81.460938 152.613281 Z M 185.144531 44.21875 "/></clipPath><clipPath id="8ac21376d5"><path d="M 187 155 L 273 155 L 273 235 L 187 235 Z M 187 155 "/></clipPath><clipPath id="ee19511aab"><path d="M 185.144531 44.21875 L 293.539062 147.90625 L 189.855469 256.296875 L 81.460938 152.613281 Z M 185.144531 44.21875 "/></clipPath><clipPath id="8d01ffeb34"><path d="M 185.144531 44.21875 L 293.539062 147.90625 L 189.855469 256.296875 L 81.460938 152.613281 Z M 185.144531 44.21875 "/></clipPath><clipPath id="299c4f65b1"><path d="M 185.144531 44.21875 L 293.539062 147.90625 L 189.855469 256.296875 L 81.460938 152.613281 Z M 185.144531 44.21875 "/></clipPath><clipPath id="abcb194296"><path d="M 102 65 L 188 65 L 188 146 L 102 146 Z M 102 65 "/></clipPath><clipPath id="474af77729"><path d="M 185.144531 44.21875 L 293.539062 147.90625 L 189.855469 256.296875 L 81.460938 152.613281 Z M 185.144531 44.21875 "/></clipPath><clipPath id="b4b2aafa6a"><path d="M 185.144531 44.21875 L 293.539062 147.90625 L 189.855469 256.296875 L 81.460938 152.613281 Z M 185.144531 44.21875 "/></clipPath><clipPath id="de599227e9"><path d="M 185.144531 44.21875 L 293.539062 147.90625 L 189.855469 256.296875 L 81.460938 152.613281 Z M 185.144531 44.21875 "/></clipPath></defs><g id="f80fb3d718"><g clip-rule="nonzero" clip-path="url(#744eb39b60)"><g clip-rule="nonzero" clip-path="url(#370e3e2204)"><g clip-rule="nonzero" clip-path="url(#4b72481c2e)"><g clip-rule="nonzero" clip-path="url(#199b051ab1)"><path style=" stroke:none;fill-rule:nonzero;fill:#000000;fill-opacity:1;" d="M 117.863281 187.433594 L 119.023438 186.21875 C 118.847656 186.050781 118.683594 185.871094 118.527344 185.683594 C 118.375 185.496094 118.234375 185.296875 118.105469 185.089844 C 117.976562 184.882812 117.859375 184.667969 117.757812 184.445312 C 117.65625 184.226562 117.570312 184 117.496094 183.765625 C 117.421875 183.535156 117.363281 183.296875 117.320312 183.058594 C 117.273438 182.820312 117.246094 182.578125 117.230469 182.335938 C 117.21875 182.089844 117.21875 181.847656 117.234375 181.605469 C 117.253906 181.363281 117.285156 181.121094 117.332031 180.882812 C 117.378906 180.640625 117.4375 180.40625 117.515625 180.175781 C 117.589844 179.945312 117.679688 179.71875 117.785156 179.496094 C 117.890625 179.277344 118.007812 179.0625 118.136719 178.859375 C 118.269531 178.652344 118.410156 178.457031 118.566406 178.269531 C 118.722656 178.082031 118.886719 177.902344 119.066406 177.738281 C 119.242188 177.570312 119.429688 177.414062 119.628906 177.269531 C 119.824219 177.128906 120.03125 176.996094 120.242188 176.878906 C 120.457031 176.761719 120.675781 176.65625 120.902344 176.566406 L 157.792969 161.890625 L 144.101562 199.730469 C 144.027344 199.941406 143.9375 200.144531 143.835938 200.34375 C 143.734375 200.542969 143.621094 200.734375 143.496094 200.921875 C 143.371094 201.105469 143.234375 201.28125 143.085938 201.449219 C 142.9375 201.617188 142.78125 201.777344 142.613281 201.925781 C 142.445312 202.074219 142.269531 202.210938 142.085938 202.335938 C 141.902344 202.464844 141.710938 202.578125 141.511719 202.679688 C 141.3125 202.785156 141.109375 202.875 140.898438 202.949219 C 140.691406 203.027344 140.476562 203.09375 140.257812 203.144531 C 140.042969 203.195312 139.820312 203.230469 139.597656 203.253906 C 139.375 203.277344 139.152344 203.289062 138.929688 203.285156 C 138.707031 203.28125 138.484375 203.261719 138.261719 203.230469 C 138.042969 203.199219 137.824219 203.152344 137.609375 203.09375 C 137.390625 203.035156 137.179688 202.964844 136.976562 202.878906 C 136.769531 202.792969 136.566406 202.695312 136.371094 202.585938 C 136.179688 202.476562 135.992188 202.355469 135.8125 202.222656 C 135.632812 202.089844 135.460938 201.945312 135.300781 201.792969 L 134.140625 203.003906 L 168.207031 235.589844 L 169.367188 234.378906 C 168.59375 233.636719 167.875 232.847656 167.214844 232.007812 C 166.550781 231.167969 165.949219 230.289062 165.414062 229.363281 C 164.875 228.441406 164.402344 227.484375 163.996094 226.492188 C 163.59375 225.503906 163.257812 224.488281 162.996094 223.453125 C 162.734375 222.417969 162.542969 221.367188 162.429688 220.304688 C 162.3125 219.242188 162.273438 218.175781 162.304688 217.105469 C 162.339844 216.035156 162.449219 214.976562 162.628906 213.921875 C 162.8125 212.867188 163.066406 211.832031 163.394531 210.8125 L 182.257812 152.203125 L 179.921875 149.96875 L 117.570312 174.699219 C 116.453125 175.140625 115.296875 175.417969 114.101562 175.53125 C 112.90625 175.640625 111.71875 175.582031 110.542969 175.351562 C 109.363281 175.121094 108.242188 174.730469 107.175781 174.179688 C 106.109375 173.628906 105.140625 172.9375 104.273438 172.105469 L 103.109375 173.324219 Z M 117.863281 187.433594 "/></g></g></g></g><g clip-rule="nonzero" clip-path="url(#f93598a197)"><g clip-rule="nonzero" clip-path="url(#1e6b2b75bf)"><g clip-rule="nonzero" clip-path="url(#7fa9fb7794)"><g clip-rule="nonzero" clip-path="url(#5cb0671856)"><path style=" stroke:none;fill-rule:nonzero;fill:#000000;fill-opacity:1;" d="M 257.136719 113.082031 L 255.976562 114.296875 C 256.152344 114.464844 256.316406 114.644531 256.472656 114.832031 C 256.625 115.023438 256.765625 115.222656 256.894531 115.429688 C 257.023438 115.632812 257.140625 115.847656 257.242188 116.070312 C 257.34375 116.292969 257.429688 116.519531 257.503906 116.75 C 257.578125 116.984375 257.636719 117.21875 257.679688 117.457031 C 257.726562 117.699219 257.753906 117.941406 257.769531 118.183594 C 257.78125 118.425781 257.78125 118.667969 257.765625 118.914062 C 257.746094 119.15625 257.714844 119.398438 257.667969 119.636719 C 257.621094 119.875 257.5625 120.109375 257.484375 120.34375 C 257.410156 120.574219 257.320312 120.800781 257.214844 121.019531 C 257.109375 121.238281 256.992188 121.453125 256.863281 121.660156 C 256.730469 121.863281 256.589844 122.0625 256.433594 122.25 C 256.277344 122.4375 256.113281 122.613281 255.933594 122.78125 C 255.757812 122.945312 255.570312 123.101562 255.371094 123.246094 C 255.175781 123.390625 254.96875 123.519531 254.757812 123.636719 C 254.542969 123.753906 254.324219 123.859375 254.097656 123.949219 L 217.207031 138.625 L 230.898438 100.785156 C 230.972656 100.574219 231.0625 100.371094 231.164062 100.171875 C 231.265625 99.972656 231.378906 99.78125 231.503906 99.597656 C 231.628906 99.410156 231.765625 99.234375 231.914062 99.066406 C 232.0625 98.898438 232.21875 98.742188 232.386719 98.59375 C 232.554688 98.445312 232.730469 98.308594 232.914062 98.179688 C 233.097656 98.054688 233.289062 97.941406 233.488281 97.835938 C 233.6875 97.734375 233.890625 97.644531 234.101562 97.566406 C 234.308594 97.488281 234.523438 97.425781 234.742188 97.375 C 234.957031 97.324219 235.179688 97.285156 235.402344 97.261719 C 235.625 97.238281 235.847656 97.230469 236.070312 97.234375 C 236.292969 97.238281 236.515625 97.253906 236.738281 97.285156 C 236.957031 97.316406 237.175781 97.363281 237.390625 97.421875 C 237.609375 97.480469 237.820312 97.554688 238.023438 97.636719 C 238.230469 97.722656 238.433594 97.820312 238.628906 97.929688 C 238.820312 98.039062 239.007812 98.160156 239.1875 98.292969 C 239.367188 98.429688 239.539062 98.570312 239.699219 98.726562 L 240.859375 97.511719 L 206.792969 64.925781 L 205.632812 66.140625 C 206.40625 66.878906 207.125 67.667969 207.785156 68.507812 C 208.449219 69.347656 209.050781 70.230469 209.585938 71.152344 C 210.125 72.078125 210.597656 73.035156 211.003906 74.023438 C 211.40625 75.015625 211.742188 76.027344 212.003906 77.0625 C 212.265625 78.101562 212.457031 79.148438 212.570312 80.214844 C 212.6875 81.277344 212.726562 82.34375 212.695312 83.410156 C 212.660156 84.480469 212.550781 85.542969 212.371094 86.59375 C 212.1875 87.648438 211.933594 88.683594 211.605469 89.703125 L 192.742188 148.316406 L 195.078125 150.550781 L 257.429688 125.816406 C 258.546875 125.375 259.703125 125.097656 260.898438 124.988281 C 262.09375 124.875 263.28125 124.933594 264.457031 125.164062 C 265.636719 125.394531 266.757812 125.785156 267.824219 126.335938 C 268.890625 126.890625 269.859375 127.582031 270.726562 128.410156 L 271.890625 127.195312 Z M 257.136719 113.082031 "/></g></g></g></g><g clip-rule="nonzero" clip-path="url(#8ac21376d5)"><g clip-rule="nonzero" clip-path="url(#ee19511aab)"><g clip-rule="nonzero" clip-path="url(#8d01ffeb34)"><g clip-rule="nonzero" clip-path="url(#299c4f65b1)"><path style=" stroke:none;fill-rule:nonzero;fill:#000000;fill-opacity:1;" d="M 224.675781 219.898438 L 223.460938 218.734375 C 223.292969 218.910156 223.113281 219.078125 222.925781 219.230469 C 222.734375 219.382812 222.539062 219.523438 222.332031 219.652344 C 222.125 219.78125 221.910156 219.898438 221.6875 220 C 221.46875 220.101562 221.242188 220.1875 221.007812 220.261719 C 220.777344 220.335938 220.539062 220.394531 220.300781 220.4375 C 220.058594 220.484375 219.820312 220.511719 219.574219 220.527344 C 219.332031 220.539062 219.089844 220.539062 218.847656 220.523438 C 218.601562 220.507812 218.363281 220.476562 218.121094 220.429688 C 217.882812 220.382812 217.648438 220.320312 217.417969 220.246094 C 217.183594 220.167969 216.960938 220.078125 216.738281 219.972656 C 216.519531 219.871094 216.304688 219.753906 216.101562 219.621094 C 215.894531 219.492188 215.699219 219.347656 215.511719 219.191406 C 215.324219 219.035156 215.144531 218.871094 214.976562 218.691406 C 214.8125 218.515625 214.65625 218.328125 214.511719 218.132812 C 214.371094 217.933594 214.238281 217.730469 214.121094 217.515625 C 214.003906 217.300781 213.898438 217.082031 213.808594 216.855469 L 199.132812 179.964844 L 236.972656 193.65625 C 237.183594 193.730469 237.386719 193.820312 237.585938 193.921875 C 237.785156 194.023438 237.976562 194.136719 238.164062 194.265625 C 238.347656 194.390625 238.523438 194.527344 238.691406 194.671875 C 238.859375 194.820312 239.015625 194.976562 239.164062 195.144531 C 239.3125 195.3125 239.453125 195.488281 239.578125 195.671875 C 239.703125 195.855469 239.820312 196.046875 239.921875 196.246094 C 240.023438 196.445312 240.113281 196.648438 240.191406 196.859375 C 240.269531 197.070312 240.332031 197.28125 240.382812 197.5 C 240.4375 197.71875 240.472656 197.9375 240.496094 198.160156 C 240.519531 198.382812 240.53125 198.605469 240.527344 198.828125 C 240.523438 199.050781 240.503906 199.273438 240.472656 199.496094 C 240.441406 199.714844 240.394531 199.933594 240.335938 200.152344 C 240.277344 200.367188 240.207031 200.578125 240.121094 200.785156 C 240.035156 200.992188 239.9375 201.191406 239.828125 201.386719 C 239.71875 201.582031 239.597656 201.765625 239.464844 201.945312 C 239.332031 202.125 239.1875 202.296875 239.03125 202.457031 L 240.246094 203.617188 L 272.832031 169.554688 L 271.617188 168.394531 C 270.878906 169.164062 270.089844 169.882812 269.25 170.546875 C 268.410156 171.207031 267.527344 171.808594 266.605469 172.347656 C 265.679688 172.886719 264.722656 173.355469 263.734375 173.761719 C 262.746094 174.164062 261.730469 174.5 260.695312 174.761719 C 259.65625 175.023438 258.609375 175.214844 257.546875 175.328125 C 256.480469 175.445312 255.417969 175.484375 254.347656 175.453125 C 253.277344 175.417969 252.21875 175.3125 251.164062 175.128906 C 250.109375 174.945312 249.074219 174.691406 248.054688 174.363281 L 189.441406 155.5 L 187.207031 157.835938 L 211.941406 220.1875 C 212.382812 221.304688 212.660156 222.460938 212.773438 223.65625 C 212.882812 224.851562 212.824219 226.039062 212.59375 227.214844 C 212.363281 228.394531 211.972656 229.515625 211.421875 230.582031 C 210.867188 231.648438 210.179688 232.617188 209.347656 233.484375 L 210.5625 234.648438 Z M 224.675781 219.898438 "/></g></g></g></g><g clip-rule="nonzero" clip-path="url(#abcb194296)"><g clip-rule="nonzero" clip-path="url(#474af77729)"><g clip-rule="nonzero" clip-path="url(#b4b2aafa6a)"><g clip-rule="nonzero" clip-path="url(#de599227e9)"><path style=" stroke:none;fill-rule:nonzero;fill:#000000;fill-opacity:1;" d="M 150.324219 80.621094 L 151.539062 81.78125 C 151.707031 81.605469 151.886719 81.441406 152.074219 81.285156 C 152.265625 81.132812 152.460938 80.992188 152.667969 80.863281 C 152.875 80.734375 153.089844 80.621094 153.3125 80.519531 C 153.53125 80.414062 153.757812 80.328125 153.992188 80.253906 C 154.222656 80.179688 154.460938 80.121094 154.699219 80.078125 C 154.941406 80.035156 155.179688 80.003906 155.425781 79.992188 C 155.667969 79.976562 155.910156 79.976562 156.152344 79.996094 C 156.398438 80.011719 156.636719 80.042969 156.878906 80.089844 C 157.117188 80.136719 157.351562 80.195312 157.582031 80.273438 C 157.816406 80.347656 158.039062 80.4375 158.261719 80.542969 C 158.480469 80.648438 158.695312 80.765625 158.898438 80.894531 C 159.105469 81.027344 159.300781 81.167969 159.488281 81.324219 C 159.675781 81.480469 159.855469 81.648438 160.023438 81.824219 C 160.1875 82.003906 160.34375 82.1875 160.488281 82.386719 C 160.628906 82.582031 160.761719 82.789062 160.878906 83 C 160.996094 83.214844 161.101562 83.433594 161.191406 83.660156 L 175.867188 120.554688 L 138.027344 106.863281 C 137.816406 106.785156 137.613281 106.695312 137.414062 106.59375 C 137.214844 106.492188 137.023438 106.378906 136.835938 106.253906 C 136.652344 106.128906 136.476562 105.992188 136.308594 105.84375 C 136.140625 105.695312 135.984375 105.539062 135.835938 105.371094 C 135.6875 105.203125 135.546875 105.027344 135.421875 104.84375 C 135.296875 104.660156 135.179688 104.46875 135.078125 104.269531 C 134.976562 104.070312 134.886719 103.867188 134.808594 103.660156 C 134.730469 103.449219 134.667969 103.234375 134.617188 103.015625 C 134.5625 102.800781 134.527344 102.578125 134.503906 102.359375 C 134.480469 102.136719 134.46875 101.914062 134.472656 101.6875 C 134.476562 101.464844 134.496094 101.242188 134.527344 101.023438 C 134.558594 100.800781 134.605469 100.582031 134.664062 100.367188 C 134.722656 100.152344 134.792969 99.941406 134.878906 99.734375 C 134.964844 99.527344 135.0625 99.324219 135.171875 99.132812 C 135.28125 98.9375 135.402344 98.75 135.535156 98.570312 C 135.667969 98.390625 135.8125 98.21875 135.96875 98.058594 L 134.753906 96.898438 L 102.167969 130.964844 L 103.382812 132.125 C 104.121094 131.351562 104.910156 130.632812 105.75 129.972656 C 106.589844 129.308594 107.472656 128.710938 108.394531 128.171875 C 109.320312 127.632812 110.277344 127.160156 111.265625 126.757812 C 112.253906 126.351562 113.269531 126.019531 114.304688 125.753906 C 115.339844 125.492188 116.390625 125.304688 117.453125 125.1875 C 118.519531 125.070312 119.582031 125.03125 120.652344 125.066406 C 121.722656 125.097656 122.78125 125.207031 123.835938 125.390625 C 124.890625 125.570312 125.925781 125.824219 126.945312 126.152344 L 185.558594 145.015625 L 187.792969 142.679688 L 163.058594 80.328125 C 162.617188 79.210938 162.339844 78.058594 162.226562 76.859375 C 162.117188 75.664062 162.175781 74.480469 162.40625 73.300781 C 162.636719 72.121094 163.027344 71 163.578125 69.933594 C 164.132812 68.867188 164.820312 67.902344 165.652344 67.03125 L 164.4375 65.871094 Z M 150.324219 80.621094 "/></g></g></g></g><g style="fill:#001732;fill-opacity:1;"><g transform="translate(128.020924, 262.49843)"><path style="stroke:none" d="M 9.203125 -12 L 11.515625 -12 C 11.628906 -12 11.710938 -11.960938 11.765625 -11.890625 C 11.816406 -11.828125 11.8125 -11.738281 11.75 -11.625 L 6.40625 0 C 6.300781 0.226562 6.171875 0.34375 6.015625 0.34375 C 5.859375 0.34375 5.722656 0.226562 5.609375 0 L 0.265625 -11.625 C 0.210938 -11.738281 0.207031 -11.828125 0.25 -11.890625 C 0.300781 -11.960938 0.382812 -12 0.5 -12 L 2.8125 -12 C 2.988281 -12 3.109375 -11.914062 3.171875 -11.75 L 6.015625 -4.625 L 8.84375 -11.75 C 8.914062 -11.914062 9.035156 -12 9.203125 -12 Z M 9.203125 -12 "/></g></g><g style="fill:#001732;fill-opacity:1;"><g transform="translate(152.841406, 262.49843)"><path style="stroke:none" d="M 3.59375 0 L 1.515625 0 C 1.296875 0 1.1875 -0.109375 1.1875 -0.328125 L 1.1875 -11.6875 C 1.1875 -11.894531 1.296875 -12 1.515625 -12 L 3.59375 -12 C 3.8125 -12 3.921875 -11.894531 3.921875 -11.6875 L 3.921875 -0.328125 C 3.921875 -0.109375 3.8125 0 3.59375 0 Z M 3.59375 0 "/></g></g><g style="fill:#001732;fill-opacity:1;"><g transform="translate(170.741704, 262.49843)"><path style="stroke:none" d="M 8.484375 -4.421875 L 10.640625 -0.390625 C 10.703125 -0.273438 10.707031 -0.179688 10.65625 -0.109375 C 10.613281 -0.0351562 10.535156 0 10.421875 0 L 8.03125 0 C 7.863281 0 7.738281 -0.0820312 7.65625 -0.25 L 5.765625 -4 L 3.9375 -4 L 3.9375 -0.328125 C 3.9375 -0.109375 3.828125 0 3.609375 0 L 1.515625 0 C 1.296875 0 1.1875 -0.109375 1.1875 -0.328125 L 1.1875 -11.6875 C 1.1875 -11.894531 1.296875 -12 1.515625 -12 L 5.984375 -12 C 6.828125 -12 7.53125 -11.898438 8.09375 -11.703125 C 8.65625 -11.503906 9.101562 -11.226562 9.4375 -10.875 C 9.78125 -10.519531 10.023438 -10.101562 10.171875 -9.625 C 10.328125 -9.144531 10.40625 -8.628906 10.40625 -8.078125 C 10.40625 -7.191406 10.238281 -6.4375 9.90625 -5.8125 C 9.570312 -5.195312 9.097656 -4.734375 8.484375 -4.421875 Z M 5.5625 -9.640625 L 3.9375 -9.640625 L 3.9375 -6.359375 L 5.5625 -6.359375 C 5.675781 -6.359375 5.820312 -6.363281 6 -6.375 C 6.175781 -6.382812 6.363281 -6.414062 6.5625 -6.46875 C 6.757812 -6.519531 6.941406 -6.601562 7.109375 -6.71875 C 7.273438 -6.84375 7.410156 -7.007812 7.515625 -7.21875 C 7.628906 -7.4375 7.6875 -7.710938 7.6875 -8.046875 C 7.6875 -8.367188 7.632812 -8.628906 7.53125 -8.828125 C 7.4375 -9.023438 7.304688 -9.179688 7.140625 -9.296875 C 6.984375 -9.410156 6.8125 -9.488281 6.625 -9.53125 C 6.4375 -9.582031 6.25 -9.613281 6.0625 -9.625 C 5.875 -9.632812 5.707031 -9.640625 5.5625 -9.640625 Z M 5.5625 -9.640625 "/></g></g><g style="fill:#001732;fill-opacity:1;"><g transform="translate(194.937339, 262.49843)"><path style="stroke:none" d="M 7.125 0.3125 C 6.175781 0.3125 5.304688 0.160156 4.515625 -0.140625 C 3.734375 -0.441406 3.054688 -0.867188 2.484375 -1.421875 C 1.921875 -1.972656 1.484375 -2.632812 1.171875 -3.40625 C 0.859375 -4.1875 0.703125 -5.050781 0.703125 -6 C 0.703125 -6.957031 0.859375 -7.820312 1.171875 -8.59375 C 1.484375 -9.363281 1.921875 -10.023438 2.484375 -10.578125 C 3.054688 -11.140625 3.734375 -11.566406 4.515625 -11.859375 C 5.304688 -12.160156 6.175781 -12.3125 7.125 -12.3125 C 8.1875 -12.3125 9.144531 -12.125 10 -11.75 C 10.851562 -11.375 11.5625 -10.851562 12.125 -10.1875 C 12.269531 -10.03125 12.253906 -9.882812 12.078125 -9.75 L 10.359375 -8.578125 C 10.191406 -8.460938 10.046875 -8.484375 9.921875 -8.640625 C 9.585938 -9.003906 9.179688 -9.289062 8.703125 -9.5 C 8.234375 -9.707031 7.707031 -9.8125 7.125 -9.8125 C 6.582031 -9.8125 6.085938 -9.722656 5.640625 -9.546875 C 5.191406 -9.367188 4.800781 -9.113281 4.46875 -8.78125 C 4.132812 -8.445312 3.878906 -8.046875 3.703125 -7.578125 C 3.523438 -7.109375 3.4375 -6.582031 3.4375 -6 C 3.4375 -5.40625 3.523438 -4.863281 3.703125 -4.375 C 3.890625 -3.894531 4.144531 -3.484375 4.46875 -3.140625 C 4.800781 -2.796875 5.191406 -2.53125 5.640625 -2.34375 C 6.097656 -2.15625 6.59375 -2.0625 7.125 -2.0625 C 7.6875 -2.0625 8.195312 -2.160156 8.65625 -2.359375 C 9.113281 -2.554688 9.503906 -2.828125 9.828125 -3.171875 L 9.828125 -4.046875 L 7.484375 -4.046875 C 7.265625 -4.046875 7.15625 -4.15625 7.15625 -4.375 L 7.15625 -5.96875 C 7.15625 -6.175781 7.265625 -6.28125 7.484375 -6.28125 L 12 -6.28125 C 12.21875 -6.28125 12.328125 -6.175781 12.328125 -5.96875 L 12.328125 -2.28125 C 12.328125 -2.132812 12.285156 -2.015625 12.203125 -1.921875 C 11.648438 -1.210938 10.9375 -0.660156 10.0625 -0.265625 C 9.195312 0.117188 8.21875 0.3125 7.125 0.3125 Z M 7.125 0.3125 "/></g></g><g style="fill:#001732;fill-opacity:1;"><g transform="translate(220.921594, 262.49843)"><path style="stroke:none" d="M 3.59375 0 L 1.515625 0 C 1.296875 0 1.1875 -0.109375 1.1875 -0.328125 L 1.1875 -11.6875 C 1.1875 -11.894531 1.296875 -12 1.515625 -12 L 3.59375 -12 C 3.8125 -12 3.921875 -11.894531 3.921875 -11.6875 L 3.921875 -0.328125 C 3.921875 -0.109375 3.8125 0 3.59375 0 Z M 3.59375 0 "/></g></g><g style="fill:#001732;fill-opacity:1;"><g transform="translate(238.821892, 262.49843)"><path style="stroke:none" d="M 7.515625 0 L 1.515625 0 C 1.296875 0 1.1875 -0.109375 1.1875 -0.328125 L 1.1875 -11.6875 C 1.1875 -11.894531 1.296875 -12 1.515625 -12 L 3.59375 -12 C 3.8125 -12 3.921875 -11.894531 3.921875 -11.6875 L 3.921875 -2.359375 L 7.515625 -2.359375 C 7.734375 -2.359375 7.84375 -2.253906 7.84375 -2.046875 L 7.84375 -0.328125 C 7.84375 -0.109375 7.734375 0 7.515625 0 Z M 7.515625 0 "/></g></g></g></svg>